<svg width="176" height="58" viewBox="0 0 176 58" fill="none" xmlns="http://www.w3.org/2000/svg">
<path d="M92.3343 1.31812H96.9314C100.084 1.31812 102.185 3.82266 102.185 7.38175C102.185 9.35903 101.528 10.9408 100.346 11.9954C99.4269 12.7863 98.2448 13.1818 96.6687 13.1818H92.203V1.31812H92.3343ZM96.5373 11.0727C98.7702 11.0727 99.6896 9.75448 99.6896 7.38175C99.6896 5.00902 98.6388 3.42721 96.6687 3.42721H94.6985V11.2045H96.5373V11.0727Z" fill="white"/>
<path d="M108.227 12.259C107.701 12.9181 107.176 13.4453 105.731 13.4453C104.024 13.4453 102.71 12.5226 102.71 10.809C102.71 8.96351 104.287 8.30442 106.125 8.04078C107.57 7.77714 108.227 7.77714 108.227 7.11805C108.227 6.45896 107.701 6.06351 106.782 6.06351C105.731 6.06351 105.206 6.45896 105.206 7.24987H103.236C103.367 5.79987 104.418 4.48169 106.913 4.48169C109.409 4.48169 110.46 5.66805 110.46 7.64533V11.8635C110.46 12.5226 110.591 12.9181 110.722 13.0499V13.1817H108.49C108.358 13.0499 108.358 12.6544 108.227 12.259ZM108.227 10.1499V8.83169C107.833 9.09533 107.176 9.22714 106.651 9.35896C105.469 9.6226 104.943 9.88624 104.943 10.6771C104.943 11.4681 105.469 11.7317 106.257 11.7317C107.57 11.8635 108.227 10.9408 108.227 10.1499Z" fill="white"/>
<path d="M111.116 4.61366H112.299V1.97729H114.531V4.61366H115.976V6.06366H114.531V10.5455C114.531 11.2046 114.925 11.3364 115.319 11.3364C115.582 11.3364 115.976 11.3364 115.976 11.3364V13.1818C115.976 13.1818 115.451 13.1818 114.531 13.1818C113.481 13.1818 112.167 12.7864 112.167 11.0727V6.19548H110.985V4.61366H111.116Z" fill="white"/>
<path d="M122.281 12.259C121.755 12.9181 121.23 13.4453 119.785 13.4453C118.078 13.4453 116.764 12.5226 116.764 10.809C116.764 8.96351 118.34 8.30442 120.179 8.04078C121.624 7.77714 122.281 7.77714 122.281 7.11805C122.281 6.45896 121.755 6.06351 120.836 6.06351C119.785 6.06351 119.26 6.45896 119.26 7.24987H117.29C117.29 5.79987 118.472 4.48169 120.967 4.48169C123.463 4.48169 124.513 5.66805 124.513 7.64533V11.8635C124.513 12.5226 124.645 12.9181 124.776 13.0499V13.1817H122.543C122.412 13.0499 122.412 12.6544 122.281 12.259ZM122.281 10.1499V8.83169C121.887 9.09533 121.361 9.22714 120.704 9.35896C119.522 9.6226 118.997 9.88624 118.997 10.6771C118.997 11.4681 119.522 11.7317 120.31 11.7317C121.624 11.8635 122.281 10.9408 122.281 10.1499Z" fill="white"/>
<path d="M92.3344 20.2998H94.6985V32.1634H92.3344V20.2998Z" fill="white"/>
<path d="M98.6389 24.7815C99.2956 23.8588 100.084 23.3315 101.266 23.3315C102.973 23.3315 104.155 24.6497 104.155 26.4952V32.0315H101.922V26.7588C101.922 25.8361 101.397 25.177 100.478 25.177C99.4269 25.177 98.7702 25.9679 98.7702 27.1543V32.0315H96.5374V23.4634H98.7702V24.7815H98.6389Z" fill="white"/>
<path d="M104.812 23.5953H105.994V20.959H108.227V23.5953H109.672V25.0453H108.227V29.5272C108.227 30.1863 108.621 30.3181 109.015 30.3181C109.278 30.3181 109.672 30.3181 109.672 30.3181V32.0317C109.672 32.0317 109.146 32.0317 108.227 32.0317C107.176 32.0317 105.863 31.6363 105.863 29.9226V24.9135H104.812V23.5953Z" fill="white"/>
<path d="M110.328 27.8134C110.328 25.3088 112.036 23.3315 114.531 23.3315C117.29 23.3315 118.734 25.4406 118.734 28.4725H112.561C112.693 29.7906 113.481 30.5815 114.794 30.5815C115.713 30.5815 116.239 30.1861 116.37 29.527H118.603C118.34 30.977 116.896 32.2952 114.794 32.2952C111.904 32.427 110.328 30.4497 110.328 27.8134ZM112.561 27.0225H116.37C116.37 25.9679 115.582 25.177 114.531 25.177C113.349 25.177 112.693 25.8361 112.561 27.0225Z" fill="white"/>
<path d="M119.785 20.2998H122.018V32.1634H119.785V20.2998Z" fill="white"/>
<path d="M123.463 20.2998H125.827V32.1634H123.594V20.2998H123.463Z" fill="white"/>
<path d="M127.272 20.2998H129.504V22.2771H127.272V20.2998ZM127.272 23.5953H129.504V32.1634H127.272V23.5953Z" fill="white"/>
<path d="M130.687 32.427H132.919C133.051 32.9543 133.576 33.3497 134.627 33.3497C135.94 33.3497 136.466 32.6907 136.466 31.6361V30.7134C135.94 31.2407 135.284 31.7679 134.233 31.7679C132.394 31.7679 130.555 30.3179 130.555 27.6816C130.555 25.177 132.131 23.4634 134.233 23.4634C135.284 23.4634 136.072 23.8588 136.597 24.6497V23.727H138.83V31.6361C138.83 32.8225 138.436 33.6134 137.779 34.2725C137.122 34.9316 135.94 35.1952 134.758 35.1952C132.394 35.0634 130.949 34.0088 130.687 32.427ZM136.728 27.5497C136.728 26.3634 136.072 25.177 134.758 25.177C133.576 25.177 132.788 26.0997 132.788 27.5497C132.788 28.9997 133.576 29.7907 134.758 29.7907C136.072 29.7907 136.728 28.7361 136.728 27.5497Z" fill="white"/>
<path d="M139.881 27.8134C139.881 25.3088 141.588 23.3315 144.084 23.3315C146.842 23.3315 148.287 25.4406 148.287 28.4725H142.113C142.245 29.7906 143.033 30.5815 144.346 30.5815C145.266 30.5815 145.791 30.1861 145.922 29.527H148.155C147.893 30.977 146.448 32.2952 144.346 32.2952C141.457 32.427 139.881 30.4497 139.881 27.8134ZM142.113 27.0225H145.922C145.922 25.9679 145.134 25.177 144.084 25.177C142.902 25.177 142.245 25.8361 142.113 27.0225Z" fill="white"/>
<path d="M151.439 24.7815C152.095 23.8588 152.884 23.3315 154.066 23.3315C155.773 23.3315 156.955 24.6497 156.955 26.4952V32.0315H154.722V26.7588C154.722 25.8361 154.197 25.177 153.278 25.177C152.227 25.177 151.57 25.9679 151.57 27.1543V32.0315H149.337V23.4634H151.57V24.7815H151.439Z" fill="white"/>
<path d="M157.875 27.9452C157.875 25.4407 159.582 23.4634 162.078 23.4634C164.31 23.4634 165.624 24.7816 165.887 26.627H163.654C163.522 25.8361 162.866 25.3088 162.078 25.3088C160.764 25.3088 159.976 26.3634 159.976 27.9452C159.976 29.527 160.633 30.5816 161.946 30.5816C162.866 30.5816 163.522 30.0543 163.654 29.1316H165.887C165.755 30.977 164.31 32.427 162.078 32.427C159.582 32.427 157.875 30.4497 157.875 27.9452Z" fill="white"/>
<path d="M166.675 27.8134C166.675 25.3088 168.382 23.3315 170.878 23.3315C173.636 23.3315 175.081 25.4406 175.081 28.4725H168.908C169.039 29.7906 169.827 30.5815 171.14 30.5815C172.06 30.5815 172.585 30.1861 172.716 29.527H174.949C174.687 30.977 173.242 32.2952 171.14 32.2952C168.251 32.427 166.675 30.4497 166.675 27.8134ZM168.908 27.0225H172.716C172.585 25.9679 171.928 25.177 170.878 25.177C169.696 25.177 169.039 25.8361 168.908 27.0225Z" fill="white"/>
<path d="M91.809 45.2135C91.809 41.6544 94.0418 39.0181 97.4567 39.0181C100.346 39.0181 102.054 40.7317 102.316 42.9726H99.9522C99.6896 41.7862 98.9015 40.9953 97.4567 40.9953C95.2239 40.9953 94.1731 42.8408 94.1731 45.2135C94.1731 47.5862 95.4866 49.4317 97.4567 49.4317C98.9015 49.4317 99.8209 48.6408 99.9522 47.3226H102.316C102.185 48.3772 101.791 49.4317 101.003 50.0908C100.215 50.8817 99.0328 51.409 97.4567 51.409C94.1731 51.409 91.809 48.7726 91.809 45.2135Z" fill="white"/>
<path d="M103.499 39.2817H105.731V51.1454H103.499V39.2817Z" fill="white"/>
<path d="M106.782 46.9271C106.782 44.4226 108.621 42.4453 111.248 42.4453C113.875 42.4453 115.713 44.4226 115.713 46.9271C115.713 49.4317 113.875 51.4089 111.248 51.4089C108.621 51.4089 106.782 49.4317 106.782 46.9271ZM113.349 46.9271C113.349 45.2135 112.561 44.1589 111.248 44.1589C109.803 44.1589 109.146 45.3453 109.146 46.9271C109.146 48.5089 109.934 49.6953 111.248 49.6953C112.561 49.6953 113.349 48.5089 113.349 46.9271Z" fill="white"/>
<path d="M122.018 51.1453V50.0908C121.493 50.8817 120.836 51.2772 119.522 51.2772C117.684 51.409 116.633 50.0908 116.633 48.2453V42.5771H118.866V47.8499C118.866 48.9044 119.26 49.4317 120.31 49.4317C121.361 49.4317 122.018 48.6408 122.018 47.4544V42.5771H124.251V51.1453H122.018Z" fill="white"/>
<path d="M125.302 46.9272C125.302 44.2908 126.746 42.4454 128.979 42.4454C130.161 42.4454 130.949 42.9727 131.343 43.7636V39.4136H133.576V51.2772H131.343V50.2227C130.818 51.0136 130.03 51.5408 128.848 51.5408C126.746 51.409 125.302 49.5636 125.302 46.9272ZM131.475 46.9272C131.475 45.3454 130.949 44.159 129.505 44.159C128.322 44.159 127.666 45.2136 127.666 46.7954C127.666 48.3772 128.322 49.4318 129.505 49.4318C130.687 49.4318 131.475 48.509 131.475 46.9272Z" fill="white"/>
<mask id="mask0_1_738" style="mask-type:alpha" maskUnits="userSpaceOnUse" x="1" y="7" width="51" height="44">
<path fill-rule="evenodd" clip-rule="evenodd" d="M51.4741 7.56226H1.9577V50.535H51.4741V7.56226Z" fill="white"/>
</mask>
<g mask="url(#mask0_1_738)">
<path fill-rule="evenodd" clip-rule="evenodd" d="M18.1129 19.8213H19.295C21.3965 12.7032 28.095 7.56226 36.2383 7.56226C42.6741 7.56226 48.4532 10.9895 51.4741 16.1304H38.4711V50.535H17.1935C7.7368 50.535 1.9577 43.6804 1.9577 35.1123C1.9577 26.5441 9.18158 19.8213 18.1129 19.8213Z" fill="#72BF00"/>
</g>
<path fill-rule="evenodd" clip-rule="evenodd" d="M70.4001 35.1954C70.4001 26.7591 63.1762 19.7727 54.1135 19.7727H52.9314C52.5374 18.4545 52.012 17.2682 51.3553 16.0818H78.5433V56.2863H38.4836V50.4863H55.1642C64.6209 50.4863 70.4001 43.6318 70.4001 35.1954Z" fill="#BDCCD4"/>
<path fill-rule="evenodd" clip-rule="evenodd" d="M51.4866 16.0818C52.1433 17.2682 52.6687 18.4545 53.0627 19.7727H54.2448C63.1761 19.7727 70.5314 26.6272 70.5314 35.1954C70.5314 43.7636 64.7523 50.6182 55.2956 50.6182H38.4836V16.0818H51.4866Z" fill="#03755F"/>
</svg>
